<?xml version="1.0" encoding="utf-8"?>
<svg viewBox="209.3646 163.7132 49.9999 50.0876" width="49.9999" height="50.0876" xmlns="http://www.w3.org/2000/svg">
  <rect x="68.816" y="53.687" width="50" height="50" style="stroke: rgb(0, 0, 0); fill: none; fill-rule: nonzero; stroke-width: 4px;" transform="matrix(0.9999979734420776, -0.0017500001704320312, 0, 1.0000020265579224, 140.54869498457586, 110.23398918610766)"/>
  <g transform="matrix(0.238725, 0, 0, 0.159042, 213.610373, 189.545553)" style="">
    <path class="st0" d="M 14.487 45.594 L 27.933 45.594 L 27.933 12.994 C 27.933 10.264 27.175 7.774 25.958 5.974 C 24.74 4.174 23.056 3.054 21.21 3.054 C 19.364 3.054 17.679 4.174 16.462 5.974 C 15.244 7.774 14.487 10.264 14.487 12.994 L 14.487 45.594 Z M 36.231 11.894 C 35.278 11.894 34.507 10.754 34.507 9.344 C 34.507 7.934 35.278 6.794 36.231 6.794 L 45.795 6.794 C 46.749 6.794 47.52 7.934 47.52 9.344 C 47.52 10.754 46.749 11.894 45.795 11.894 L 36.231 11.894 Z M 36.231 26.264 C 35.278 26.264 34.507 25.124 34.507 23.714 C 34.507 22.304 35.278 21.164 36.231 21.164 L 45.795 21.164 C 46.749 21.164 47.52 22.304 47.52 23.714 C 47.52 25.124 46.749 26.264 45.795 26.264 L 36.231 26.264 Z M 36.231 40.634 C 35.278 40.634 34.507 39.494 34.507 38.084 C 34.507 36.674 35.278 35.534 36.231 35.534 L 45.795 35.534 C 46.749 35.534 47.52 36.674 47.52 38.084 C 47.52 39.494 46.749 40.634 45.795 40.634 L 36.231 40.634 Z M 36.231 55.004 C 35.278 55.004 34.507 53.864 34.507 52.454 C 34.507 51.044 35.278 49.904 36.231 49.904 L 45.795 49.904 C 46.749 49.904 47.52 51.044 47.52 52.454 C 47.52 53.864 46.749 55.004 45.795 55.004 L 36.231 55.004 Z M 36.231 69.374 C 35.278 69.374 34.507 68.234 34.507 66.824 C 34.507 65.414 35.278 64.274 36.231 64.274 L 45.795 64.274 C 46.749 64.274 47.52 65.414 47.52 66.824 C 47.52 68.234 46.749 69.374 45.795 69.374 L 36.231 69.374 Z M 31.376 72.414 C 36.021 77.224 39.058 85.204 39.058 94.224 C 39.058 108.924 30.996 120.844 21.054 120.844 C 11.112 120.844 3.05 108.924 3.05 94.224 C 3.05 85.004 6.222 76.874 11.045 72.104 L 11.045 12.994 C 11.045 8.854 12.187 5.104 14.027 2.374 C 15.867 -0.346 18.41 -2.036 21.21 -2.036 C 24.01 -2.036 26.546 -0.346 28.393 2.374 C 30.232 5.094 31.376 8.854 31.376 12.994 L 31.376 72.414 Z" style="clip-rule: evenodd; fill-rule: evenodd; paint-order: fill; stroke: rgb(0, 0, 0); stroke-width: 0px;"/>
  </g>
</svg>