<?xml version="1.0" encoding="utf-8"?>
<svg id="mdi-printer-3d-nozzle" viewBox="0 0 24 24" xmlns="http://www.w3.org/2000/svg">
  <path d="M 10.629 2.198 L 20.629 2.198 L 20.629 8.198 L 22.629 8.198 L 22.629 13.198 L 20.129 13.198 L 16.629 17.198 L 14.629 17.198 L 11.129 13.198 L 8.629 13.198 L 8.629 8.198 L 10.629 8.198 L 10.629 2.198 M 13.629 22.198 L 5.629 22.198 L 5.629 20.198 L 13.629 20.198 C 14.181 20.198 14.629 19.75 14.629 19.198 L 14.629 18.198 L 16.629 18.198 L 16.629 19.198 C 16.629 20.855 15.285 22.198 13.629 22.198 Z"/>
  <g transform="matrix(0.10611, 0, 0, 0.094945, 0.522921, 8.053313)" style="">
    <path class="st0" d="M 18.118 46.935 L 36.494 46.935 L 36.494 14.335 C 36.494 11.605 35.459 9.115 33.795 7.315 C 32.131 5.515 29.829 4.395 27.306 4.395 C 24.782 4.395 22.481 5.515 20.817 7.315 C 19.153 9.115 18.118 11.605 18.118 14.335 L 18.118 46.935 Z M 47.836 13.235 C 46.532 13.235 45.478 12.095 45.478 10.685 C 45.478 9.275 46.532 8.135 47.836 8.135 L 60.906 8.135 C 62.209 8.135 63.263 9.275 63.263 10.685 C 63.263 12.095 62.209 13.235 60.906 13.235 L 47.836 13.235 Z M 47.836 27.605 C 46.532 27.605 45.478 26.465 45.478 25.055 C 45.478 23.645 46.532 22.505 47.836 22.505 L 60.906 22.505 C 62.209 22.505 63.263 23.645 63.263 25.055 C 63.263 26.465 62.209 27.605 60.906 27.605 L 47.836 27.605 Z M 47.836 41.975 C 46.532 41.975 45.478 40.835 45.478 39.425 C 45.478 38.015 46.532 36.875 47.836 36.875 L 60.906 36.875 C 62.209 36.875 63.263 38.015 63.263 39.425 C 63.263 40.835 62.209 41.975 60.906 41.975 L 47.836 41.975 Z M 47.836 56.345 C 46.532 56.345 45.478 55.205 45.478 53.795 C 45.478 52.385 46.532 51.245 47.836 51.245 L 60.906 51.245 C 62.209 51.245 63.263 52.385 63.263 53.795 C 63.263 55.205 62.209 56.345 60.906 56.345 L 47.836 56.345 Z M 47.836 70.715 C 46.532 70.715 45.478 69.575 45.478 68.165 C 45.478 66.755 46.532 65.615 47.836 65.615 L 60.906 65.615 C 62.209 65.615 63.263 66.755 63.263 68.165 C 63.263 69.575 62.209 70.715 60.906 70.715 L 47.836 70.715 Z M 41.199 73.755 C 47.549 78.565 51.699 86.545 51.699 95.565 C 51.699 110.265 40.681 122.185 27.093 122.185 C 13.505 122.185 2.487 110.265 2.487 95.565 C 2.487 86.345 6.822 78.215 13.413 73.445 L 13.413 14.335 C 13.413 10.195 14.975 6.445 17.489 3.715 C 20.003 0.995 23.479 -0.695 27.306 -0.695 C 31.133 -0.695 34.599 0.995 37.122 3.715 C 39.637 6.435 41.199 10.195 41.199 14.335 L 41.199 73.755 Z" style="clip-rule: evenodd; fill-rule: evenodd;"/>
  </g>
</svg>