<?xml version="1.0" encoding="utf-8"?>
<svg viewBox="46 418 121 158.0001" width="121" height="158.0001" xmlns="http://www.w3.org/2000/svg">
  <path style="paint-order: fill; stroke: rgb(255, 255, 255); stroke-width: 3px;" d="m 140,418 -58,57 1,25 v 19 l 57,57 h 27 v -1 L 91,496.5 167,419 v -1 z" id="path8" transform="matrix(1, 0, 0, 1, -3.552713678800501e-15, 0)"/>
  <g transform="matrix(1, 0, 0, 1, -0.00010834799468284473, 0.048000004142526365)" id="g17">
    <path d="m 83.041215,464.92108 h 0.001 l -0.04211,27.03092 h 11 l 73.000005,-74 v 14.301 l -63,64.199 63,65.5 v 14 l -73.000002,-75 h -13 c -2,0 -4,-2 -4,-4 h -2 v -33 h 2 c 0,-1 1,-2 3.00004,-2 1.99996,0 2.99996,1 2.99996,2 z" style="stroke-width: 2px; stroke: rgb(255, 255, 255);" id="path15"/>
  </g>
  <g id="path839" transform="matrix(1.072474, 0, 0, 1.03268, 23.478043, -21.92157)" style="">
    <rect x="21" y="426" width="30.015202" height="153" style="fill-rule: nonzero;" id="rect12"/>
  </g>
</svg>